<svg width="296" height="58" viewBox="0 0 296 58" fill="none" xmlns="http://www.w3.org/2000/svg">
<ellipse cx="10.2276" cy="47.0444" rx="10.2276" ry="10.9556" fill="#FCFFF5"/>
<ellipse cx="21.6585" cy="23.2" rx="21.6585" ry="23.2" fill="#FCFFF5"/>
<ellipse cx="48.7317" cy="36.7333" rx="12.6341" ry="13.5333" fill="#FCFFF5"/>
<ellipse cx="63.7723" cy="21.9111" rx="9.62601" ry="10.3111" fill="#FCFFF5"/>
<ellipse cx="84.8293" cy="25.1333" rx="16.2439" ry="17.4" fill="#FCFFF5"/>
<ellipse cx="95.0569" cy="36.0889" rx="9.62601" ry="10.3111" fill="#FCFFF5"/>
<ellipse cx="107.089" cy="34.8" rx="6.01626" ry="6.44444" fill="#FCFFF5"/>
<ellipse cx="120.927" cy="17.4" rx="16.2439" ry="17.4" fill="#FCFFF5"/>
<ellipse cx="135.967" cy="34.8" rx="9.62601" ry="10.3111" fill="#FCFFF5"/>
<ellipse cx="140.78" cy="21.9111" rx="3.60976" ry="3.86667" fill="#FCFFF5"/>
<ellipse cx="148.602" cy="26.4222" rx="5.41463" ry="5.8" fill="#FCFFF5"/>
<ellipse cx="153.415" cy="17.4" rx="5.41463" ry="5.8" fill="#FCFFF5"/>
<ellipse cx="163.642" cy="28.3556" rx="15.6423" ry="16.7556" fill="#FCFFF5"/>
<ellipse cx="176.276" cy="17.4" rx="1.80488" ry="1.93333" fill="#FCFFF5"/>
<ellipse cx="184.098" cy="18.0445" rx="6.01626" ry="6.44444" fill="#FCFFF5"/>
<ellipse cx="188.309" cy="25.1333" rx="4.21138" ry="4.51111" fill="#FCFFF5"/>
<ellipse cx="187.106" cy="30.2889" rx="1.80488" ry="1.93333" fill="#FCFFF5"/>
<ellipse cx="193.724" cy="29.6445" rx="3.60976" ry="3.86667" fill="#FCFFF5"/>
<ellipse cx="198.537" cy="24.4889" rx="13.2358" ry="14.1778" fill="#FCFFF5"/>
<ellipse cx="200.943" cy="12.8889" rx="7.21951" ry="7.73333" fill="#FCFFF5"/>
<ellipse cx="205.756" cy="28.3556" rx="4.81301" ry="5.15556" fill="#FCFFF5"/>
<ellipse cx="214.78" cy="23.8445" rx="6.61789" ry="7.08889" fill="#FCFFF5"/>
<ellipse cx="223.805" cy="27.0667" rx="6.01626" ry="6.44444" fill="#FCFFF5"/>
<ellipse cx="232.228" cy="33.5111" rx="9.62601" ry="10.3111" fill="#FCFFF5"/>
<ellipse cx="241.252" cy="26.4222" rx="5.41463" ry="5.8" fill="#FCFFF5"/>
<ellipse cx="244.862" cy="12.2444" rx="4.21138" ry="4.51111" fill="#FCFFF5"/>
<ellipse cx="248.472" cy="29" rx="5.41463" ry="5.8" fill="#FCFFF5"/>
<ellipse cx="253.285" cy="22.5555" rx="3.00813" ry="3.22222" fill="#FCFFF5"/>
<ellipse cx="258.699" cy="28.3556" rx="4.81301" ry="5.15556" fill="#FCFFF5"/>
<ellipse cx="270.13" cy="17.4" rx="7.82114" ry="8.37778" fill="#FCFFF5"/>
<ellipse cx="262.309" cy="21.9111" rx="3.60976" ry="3.86667" fill="#FCFFF5"/>
<ellipse cx="263.512" cy="34.8" rx="3.60976" ry="3.86667" fill="#FCFFF5"/>
<ellipse cx="270.13" cy="32.8667" rx="1.80488" ry="1.93333" fill="#FCFFF5"/>
<ellipse cx="268.325" cy="34.8" rx="1.20325" ry="1.28889" fill="#FCFFF5"/>
<ellipse cx="276.748" cy="28.3556" rx="6.01626" ry="6.44444" fill="#FCFFF5"/>
<ellipse cx="282.163" cy="35.4444" rx="4.21138" ry="4.51111" fill="#FCFFF5"/>
<ellipse cx="283.366" cy="26.4222" rx="4.21138" ry="4.51111" fill="#FCFFF5"/>
<ellipse cx="288.781" cy="32.2222" rx="4.81301" ry="5.15556" fill="#FCFFF5"/>
<ellipse cx="291.187" cy="21.9111" rx="4.81301" ry="5.15556" fill="#FCFFF5"/>
<ellipse cx="280.959" cy="43.1778" rx="6.61789" ry="7.08889" fill="#FCFFF5"/>
<ellipse cx="274.943" cy="49.6222" rx="4.21138" ry="4.51111" fill="#FCFFF5"/>
<path d="M27.1406 38.5352C26.9297 38.3945 26.8242 38.2422 26.8242 38.0781C26.8008 37.9141 26.8359 37.75 26.9297 37.5859C27.0234 37.3984 27.1641 37.2109 27.3516 37.0234C27.5391 36.8594 27.7617 36.4375 28.0195 35.7578C28.2773 35.1016 28.5469 34.3047 28.8281 33.3672C29.1328 32.4062 29.4258 31.3633 29.707 30.2383C30.0117 29.1133 30.293 28.0117 30.5508 26.9336C30.8086 25.8555 31.0312 24.8594 31.2188 23.9453C31.4062 23.0312 31.5469 22.3047 31.6406 21.7656C31.7578 21.1094 31.8867 20.3945 32.0273 19.6211C32.1445 18.9414 32.2734 18.1562 32.4141 17.2656C32.5547 16.3516 32.6836 15.3438 32.8008 14.2422L35.6133 12.9766C36.0117 12.7891 36.293 12.8359 36.457 13.1172C36.6211 13.375 36.6211 13.9258 36.457 14.7695C36.3867 15.1914 36.2578 15.8828 36.0703 16.8438C35.8828 17.7812 35.6602 18.8242 35.4023 19.9727C35.168 21.0977 34.9102 22.2578 34.6289 23.4531C34.3711 24.625 34.1133 25.668 33.8555 26.582C33.6211 27.4492 33.3516 28.4453 33.0469 29.5703C32.5078 31.4922 31.7578 34.1172 30.7969 37.4453C31.125 38.0078 31.7344 38.2891 32.625 38.2891C33.6094 38.2891 34.7461 37.9141 36.0352 37.1641C37.3477 36.4141 38.6133 35.2891 39.832 33.7891C41.0508 32.2891 42.1172 30.4141 43.0312 28.1641C43.9688 25.8906 44.5547 23.2422 44.7891 20.2188C44.9062 18.5781 44.8242 17.1367 44.543 15.8945C44.2617 14.6523 43.8281 13.6094 43.2422 12.7656C42.6797 11.9219 41.9766 11.2891 41.1328 10.8672C40.3125 10.4453 39.3984 10.2344 38.3906 10.2344C36.0234 10.2344 33.5742 11.2188 31.043 13.1875L30.8672 10.2695C31.4766 9.58984 32.168 9.07422 32.9414 8.72266C33.7383 8.34766 34.4766 8.06641 35.1562 7.87891C35.9531 7.66797 36.7617 7.55078 37.582 7.52734C39.082 7.52734 40.5234 7.82031 41.9062 8.40625C43.3125 8.96875 44.5195 9.83594 45.5273 11.0078C46.5586 12.1797 47.3438 13.6563 47.8828 15.4375C48.4219 17.1953 48.6094 19.2578 48.4453 21.625C48.3516 22.9844 48.0703 24.4023 47.6016 25.8789C47.1562 27.332 46.5586 28.7617 45.8086 30.168C45.082 31.5742 44.2148 32.9102 43.207 34.1758C42.1992 35.4414 41.0977 36.543 39.9023 37.4805C38.707 38.4414 37.4297 39.1914 36.0703 39.7305C34.7109 40.293 33.3047 40.5742 31.8516 40.5742C31.4062 40.5508 30.9258 40.4688 30.4102 40.3281C29.9648 40.2109 29.4609 40.0117 28.8984 39.7305C28.3359 39.4492 27.75 39.0508 27.1406 38.5352ZM57.5156 13.293C57.4453 13.5508 57.3047 13.8086 57.0938 14.0664C56.9062 14.3008 56.6836 14.5 56.4258 14.6641C56.1914 14.8047 55.9453 14.8984 55.6875 14.9453C55.4297 14.9922 55.2188 14.9453 55.0547 14.8047C54.5625 14.4297 54.3047 14.0312 54.2812 13.6094C54.2578 13.1641 54.3633 12.7539 54.5977 12.3789C54.832 11.9805 55.125 11.6523 55.4766 11.3945C55.8281 11.1133 56.1328 10.9492 56.3906 10.9023C56.6484 10.8555 56.8594 10.9141 57.0234 11.0781C57.2109 11.2188 57.3516 11.418 57.4453 11.6758C57.5391 11.9102 57.5859 12.1797 57.5859 12.4844C57.6094 12.7891 57.5859 13.0586 57.5156 13.293ZM52.6641 20.7812C52.7812 20.6406 53.0039 20.5234 53.332 20.4297C53.6602 20.3359 54 20.2656 54.3516 20.2188C54.7031 20.1484 55.0195 20.1133 55.3008 20.1133C55.6055 20.0898 55.7812 20.0898 55.8281 20.1133C55.8516 20.1367 55.793 20.3828 55.6523 20.8516C55.5117 21.3203 55.3359 21.8711 55.125 22.5039C54.9141 23.1367 54.6914 23.793 54.457 24.4727C54.2227 25.1289 54.0469 25.668 53.9297 26.0898C53.8125 26.5117 53.6719 26.9922 53.5078 27.5312C53.3438 28.0469 53.1914 28.5625 53.0508 29.0781C52.9336 29.5703 52.8516 30.0391 52.8047 30.4844C52.7578 30.9297 52.793 31.2695 52.9102 31.5039C53.0273 31.7852 53.1562 31.9844 53.2969 32.1016C53.4375 32.1953 53.5898 32.2422 53.7539 32.2422C54.2227 32.2422 54.8086 31.9844 55.5117 31.4688C56.2383 30.9531 56.9648 30.3438 57.6914 29.6406C58.4414 28.9141 59.1328 28.1875 59.7656 27.4609C60.3984 26.7109 60.8672 26.1133 61.1719 25.668C61.3594 25.4336 61.5469 25.2812 61.7344 25.2109C61.9453 25.1406 62.1094 25.1523 62.2266 25.2461C62.3672 25.3398 62.4375 25.4922 62.4375 25.7031C62.4609 25.9141 62.3906 26.1602 62.2266 26.4414C61.8516 27.0977 61.3008 27.8828 60.5742 28.7969C59.8477 29.6875 59.0742 30.5547 58.2539 31.3984C57.4336 32.2188 56.625 32.9219 55.8281 33.5078C55.0547 34.0938 54.4219 34.3984 53.9297 34.4219C53.5312 34.4453 53.1328 34.375 52.7344 34.2109C52.3594 34.0703 52.0078 33.8711 51.6797 33.6133C51.375 33.332 51.1172 33.0156 50.9062 32.6641C50.6953 32.2891 50.5781 31.9023 50.5547 31.5039C50.4844 30.918 50.4844 30.1211 50.5547 29.1133C50.625 28.082 50.7539 27.0391 50.9414 25.9844C51.1289 24.9062 51.3633 23.8867 51.6445 22.9258C51.9492 21.9648 52.2891 21.25 52.6641 20.7812ZM75.5859 26.6875C74.8828 27.7188 74.0859 28.7266 73.1953 29.7109C72.3047 30.6719 71.3555 31.5391 70.3477 32.3125C69.3633 33.0625 68.3438 33.6719 67.2891 34.1406C66.2578 34.6094 65.25 34.8438 64.2656 34.8438C63.75 34.8438 63.1875 34.7148 62.5781 34.457C61.9922 34.2227 61.4531 33.8477 60.9609 33.332C60.4688 32.8164 60.0703 32.1484 59.7656 31.3281C59.4844 30.5078 59.4023 29.5117 59.5195 28.3398C59.6133 27.3789 59.9062 26.3711 60.3984 25.3164C60.9141 24.2383 61.5352 23.2539 62.2617 22.3633C63.0117 21.4727 63.8438 20.7344 64.7578 20.1484C65.6953 19.5625 66.6328 19.2695 67.5703 19.2695C68.4609 19.2695 69.1055 19.4922 69.5039 19.9375C69.9023 20.3828 70.0781 20.9336 70.0312 21.5898C69.9609 22.3164 69.75 22.9844 69.3984 23.5938C69.0703 24.2031 68.6719 24.7539 68.2031 25.2461C67.7344 25.7383 67.2305 26.1836 66.6914 26.582C66.1758 26.9805 65.6836 27.3438 65.2148 27.6719C64.6992 28.0234 64.207 28.3633 63.7383 28.6914C63.2695 28.9961 62.8594 29.2773 62.5078 29.5352C62.5312 30.1211 62.6367 30.6133 62.8242 31.0117C63.0117 31.4102 63.2461 31.7383 63.5273 31.9961C63.8086 32.2305 64.125 32.4062 64.4766 32.5234C64.8516 32.6172 65.2266 32.6641 65.6016 32.6641C66.3984 32.6641 67.2305 32.418 68.0977 31.9258C68.9648 31.4102 69.8086 30.8008 70.6289 30.0977C71.4727 29.3711 72.2461 28.6211 72.9492 27.8477C73.6758 27.0742 74.2734 26.4062 74.7422 25.8438C74.9062 25.6562 75.0703 25.5508 75.2344 25.5273C75.4219 25.4805 75.5625 25.5039 75.6562 25.5977C75.7734 25.668 75.832 25.8086 75.832 26.0195C75.832 26.207 75.75 26.4297 75.5859 26.6875ZM66.5859 21.2734C66.3047 21.2734 65.9648 21.4141 65.5664 21.6953C65.1914 21.9766 64.8164 22.3867 64.4414 22.9258C64.0664 23.4414 63.7148 24.0859 63.3867 24.8594C63.0586 25.6094 62.8125 26.4766 62.6484 27.4609C62.9297 27.25 63.2344 27.0391 63.5625 26.8281C63.8906 26.5938 64.2188 26.3477 64.5469 26.0898C65.5547 25.3164 66.2578 24.6367 66.6562 24.0508C67.0547 23.4648 67.2773 22.9609 67.3242 22.5391C67.3711 22.0938 67.3242 21.7773 67.1836 21.5898C67.043 21.3789 66.8438 21.2734 66.5859 21.2734ZM86.0273 25.1055C86.1211 24.9648 86.2383 24.8828 86.3789 24.8594C86.543 24.8125 86.6719 24.8242 86.7656 24.8945C86.8594 24.9648 86.9062 25.082 86.9062 25.2461C86.9297 25.4102 86.8711 25.6328 86.7305 25.9141C86.2617 26.8047 85.6406 27.7656 84.8672 28.7969C84.1172 29.8281 83.3203 30.8008 82.4766 31.7148C81.6328 32.6055 80.8125 33.3438 80.0156 33.9297C79.2188 34.5156 78.5508 34.8086 78.0117 34.8086C77.2383 34.8086 76.5938 34.6562 76.0781 34.3516C75.5625 34.0469 75.1523 33.6719 74.8477 33.2266C74.5664 32.7812 74.3672 32.3008 74.25 31.7852C74.1328 31.2461 74.0977 30.7539 74.1445 30.3086C74.168 29.9336 74.25 29.2656 74.3906 28.3047C74.5312 27.3203 74.7188 26.1953 74.9531 24.9297C75.1875 23.6406 75.4453 22.2695 75.7266 20.8164C76.0312 19.3398 76.3477 17.9219 76.6758 16.5625C76.2773 16.6094 75.8789 16.6562 75.4805 16.7031C75.082 16.75 74.7188 16.7734 74.3906 16.7734C73.6406 16.7734 72.9375 16.6914 72.2812 16.5273C71.6016 16.3398 71.0977 16.1641 70.7695 16C70.582 15.9063 70.5 15.7773 70.5234 15.6133C70.5469 15.4258 70.6172 15.25 70.7344 15.0859C70.8516 14.8984 71.0039 14.7461 71.1914 14.6289C71.3555 14.4883 71.5078 14.418 71.6484 14.418C72.0938 14.4648 72.5742 14.5117 73.0898 14.5586C73.6055 14.582 74.168 14.582 74.7773 14.5586C75.2227 14.5352 75.6445 14.5 76.043 14.4531C76.4648 14.4062 76.875 14.3477 77.2734 14.2773C77.5781 13.1523 77.8711 12.1797 78.1523 11.3594C78.457 10.5156 78.7266 9.92969 78.9609 9.60156C79.0312 9.48437 79.1836 9.39062 79.418 9.32031C79.6758 9.22656 79.9453 9.16797 80.2266 9.14453C80.5078 9.09766 80.7773 9.09766 81.0352 9.14453C81.293 9.16797 81.4805 9.25 81.5977 9.39062C81.7148 9.57813 81.7617 10.0586 81.7383 10.832C81.7148 11.6055 81.5859 12.5898 81.3516 13.7852C82.3359 13.7852 83.2031 13.8437 83.9531 13.9609C84.7266 14.0547 85.3828 14.1719 85.9219 14.3125C86.4609 14.4297 86.8945 14.5586 87.2227 14.6992C87.5508 14.8164 87.7969 14.8984 87.9609 14.9453C88.125 14.9922 88.207 15.1094 88.207 15.2969C88.2305 15.4844 88.1953 15.6836 88.1016 15.8945C88.0312 16.082 87.9023 16.2461 87.7148 16.3867C87.5273 16.5273 87.3164 16.5742 87.082 16.5273C86.8477 16.5039 86.5781 16.457 86.2734 16.3867C85.9922 16.3164 85.6406 16.2578 85.2188 16.2109C84.8203 16.1641 84.3398 16.1172 83.7773 16.0703C83.2148 16.0234 82.5586 16 81.8086 16C81.668 16 81.5039 16.0117 81.3164 16.0352C81.1523 16.0352 80.9766 16.0352 80.7891 16.0352C80.6953 16.4102 80.6016 16.7852 80.5078 17.1602C80.4375 17.5117 80.332 17.8867 80.1914 18.2852C79.8867 19.2227 79.5352 20.2422 79.1367 21.3438C78.7852 22.3047 78.3633 23.4062 77.8711 24.6484C77.3789 25.8906 76.8281 27.2148 76.2188 28.6211C76.0781 29.6289 76.0898 30.4023 76.2539 30.9414C76.4414 31.457 76.6641 31.832 76.9219 32.0664C77.2266 32.3242 77.6016 32.4648 78.0469 32.4883C78.3984 32.5352 78.8203 32.418 79.3125 32.1367C79.8281 31.832 80.3555 31.4336 80.8945 30.9414C81.4336 30.4492 81.9727 29.9102 82.5117 29.3242C83.0742 28.7383 83.5898 28.1641 84.0586 27.6016C84.5273 27.0391 84.9375 26.5352 85.2891 26.0898C85.6406 25.6211 85.8867 25.293 86.0273 25.1055ZM101.953 27.0039C101.625 27.4727 101.203 28.0586 100.688 28.7617C100.172 29.4414 99.6328 30.1328 99.0703 30.8359C98.5312 31.5156 97.9922 32.1484 97.4531 32.7344C96.9375 33.2969 96.5039 33.6953 96.1523 33.9297C95.918 34.0703 95.6484 34.1875 95.3438 34.2812C95.0391 34.375 94.7227 34.4336 94.3945 34.457C94.0898 34.4805 93.7969 34.457 93.5156 34.3867C93.2344 34.3398 92.9883 34.2461 92.7773 34.1055C92.5664 33.9414 92.3906 33.707 92.25 33.4023C92.1328 33.1445 92.0156 32.8047 91.8984 32.3828C91.8047 31.9609 91.7695 31.4336 91.793 30.8008C91.2305 31.7383 90.6094 32.4648 89.9297 32.9805C89.25 33.4727 88.6055 33.8359 87.9961 34.0703C87.293 34.3281 86.5898 34.4805 85.8867 34.5273C85.5586 34.5273 85.207 34.4102 84.832 34.1758C84.457 33.9648 84.1406 33.625 83.8828 33.1562C83.625 32.6641 83.4609 32.043 83.3906 31.293C83.3203 30.5195 83.4141 29.6055 83.6719 28.5508C84 27.1211 84.5156 25.8203 85.2188 24.6484C85.9453 23.4766 86.7305 22.4805 87.5742 21.6602C88.418 20.8164 89.25 20.1836 90.0703 19.7617C90.8906 19.3398 91.5703 19.1523 92.1094 19.1992C92.7422 19.3164 93.2578 19.5039 93.6562 19.7617C93.9844 19.9961 94.1953 20.3477 94.2891 20.8164C94.4062 21.2617 94.2188 21.8594 93.7266 22.6094C94.0547 22.5391 94.3242 22.4922 94.5352 22.4688C94.7695 22.4453 94.9453 22.4336 95.0625 22.4336C95.2031 22.4336 95.2969 22.4453 95.3438 22.4688C95.3672 22.5156 95.3789 22.6211 95.3789 22.7852C95.3789 22.9258 95.3438 23.1953 95.2734 23.5938C95.2031 23.9922 95.0977 24.5312 94.957 25.2109C94.8164 25.8906 94.6289 26.7695 94.3945 27.8477C94.3477 28.0586 94.3008 28.2578 94.2539 28.4453C94.2305 28.6094 94.1953 28.7852 94.1484 28.9727C94.125 29.1367 94.0898 29.3359 94.043 29.5703C93.9961 29.8047 93.9375 30.0977 93.8672 30.4492C93.8438 30.6602 93.832 30.8945 93.832 31.1523C93.8555 31.3867 93.9023 31.6094 93.9727 31.8203C94.043 32.0312 94.1484 32.207 94.2891 32.3477C94.4531 32.4648 94.6758 32.5234 94.957 32.5234C95.1914 32.5234 95.4961 32.3828 95.8711 32.1016C96.2461 31.7969 96.6445 31.4219 97.0664 30.9766C97.4883 30.5078 97.9219 30.0039 98.3672 29.4648C98.8359 28.9023 99.2695 28.3633 99.668 27.8477C100.066 27.332 100.418 26.875 100.723 26.4766C101.051 26.0781 101.285 25.7852 101.426 25.5977C101.613 25.3867 101.801 25.2695 101.988 25.2461C102.176 25.1992 102.316 25.2461 102.41 25.3867C102.504 25.5273 102.516 25.7383 102.445 26.0195C102.398 26.3008 102.234 26.6289 101.953 27.0039ZM91.6523 28.5508C91.7695 28.082 91.9102 27.5312 92.0742 26.8984C92.2383 26.2656 92.3789 25.6562 92.4961 25.0703C92.6133 24.4844 92.6953 24.0039 92.7422 23.6289C92.8125 23.2305 92.8008 23.043 92.707 23.0664C92.5898 23.0898 92.4609 23.125 92.3203 23.1719C92.2031 23.2188 92.0508 23.2539 91.8633 23.2773C91.6758 23.3008 91.4883 23.3359 91.3008 23.3828C91.4883 23.0078 91.5938 22.7031 91.6172 22.4688C91.6641 22.2109 91.6758 22.0117 91.6523 21.8711C91.6289 21.707 91.582 21.5781 91.5117 21.4844C91.2539 21.2734 90.7969 21.4492 90.1406 22.0117C89.5078 22.5508 88.7695 23.5586 87.9258 25.0352C87.5742 25.6445 87.293 26.3008 87.082 27.0039C86.8711 27.6836 86.7188 28.3281 86.625 28.9375C86.5547 29.5469 86.543 30.0859 86.5898 30.5547C86.6367 31 86.7305 31.293 86.8711 31.4336C87.1289 31.6914 87.4219 31.8203 87.75 31.8203C88.0781 31.7969 88.4062 31.7031 88.7344 31.5391C89.0859 31.3516 89.4258 31.1172 89.7539 30.8359C90.1055 30.5547 90.4102 30.2617 90.668 29.957C90.9492 29.6523 91.1719 29.3711 91.3359 29.1133C91.5234 28.8555 91.6289 28.668 91.6523 28.5508ZM120.867 27.2852C120.75 28.0117 120.633 28.7031 120.516 29.3594C120.422 30.0156 120.363 30.543 120.34 30.9414C120.316 31.5273 120.422 31.9492 120.656 32.207C120.891 32.4648 121.148 32.5938 121.43 32.5938C121.758 32.5938 122.156 32.4297 122.625 32.1016C123.117 31.7734 123.633 31.3633 124.172 30.8711C124.711 30.3789 125.25 29.8398 125.789 29.2539C126.328 28.668 126.82 28.1172 127.266 27.6016C127.734 27.0625 128.121 26.5938 128.426 26.1953C128.754 25.7969 128.977 25.5391 129.094 25.4219C129.234 25.2812 129.375 25.1992 129.516 25.1758C129.68 25.1523 129.809 25.1758 129.902 25.2461C129.996 25.3164 130.043 25.4453 130.043 25.6328C130.043 25.8203 129.949 26.0547 129.762 26.3359C129.48 26.7812 129.117 27.3086 128.672 27.918C128.227 28.5039 127.734 29.1133 127.195 29.7461C126.656 30.3789 126.082 31 125.473 31.6094C124.887 32.2188 124.289 32.7578 123.68 33.2266C123.094 33.6953 122.52 34.0703 121.957 34.3516C121.418 34.6562 120.926 34.8086 120.48 34.8086C120.152 34.8086 119.836 34.7148 119.531 34.5273C119.25 34.3398 118.992 34.0938 118.758 33.7891C118.523 33.4844 118.336 33.1445 118.195 32.7695C118.078 32.3945 118.031 32.0195 118.055 31.6445C118.078 31.4805 118.113 31.1992 118.16 30.8008C117.176 31.9023 116.18 32.7812 115.172 33.4375C114.188 34.0703 113.238 34.3867 112.324 34.3867C111.996 34.3867 111.645 34.3047 111.27 34.1406C110.895 33.9766 110.555 33.707 110.25 33.332C109.969 32.957 109.734 32.4648 109.547 31.8555C109.359 31.2461 109.289 30.5078 109.336 29.6406C109.406 28.2812 109.676 26.9922 110.145 25.7734C110.613 24.5547 111.199 23.5 111.902 22.6094C112.629 21.6953 113.438 20.9805 114.328 20.4648C115.242 19.9258 116.156 19.6562 117.07 19.6562C117.469 19.6562 117.832 19.7617 118.16 19.9727C118.488 20.1602 118.77 20.418 119.004 20.7461C119.238 21.0508 119.426 21.3906 119.566 21.7656C119.73 22.1406 119.848 22.4922 119.918 22.8203C120.082 22.1406 120.234 21.4727 120.375 20.8164C120.516 20.1602 120.656 19.5391 120.797 18.9531C121.031 18.0859 121.277 17.1484 121.535 16.1406C121.77 15.2734 122.039 14.2773 122.344 13.1523C122.648 12.0273 122.988 10.8438 123.363 9.60156C123.598 9.41406 123.82 9.27344 124.031 9.17969C124.242 9.08594 124.441 9.01563 124.629 8.96875C124.84 8.89844 125.039 8.86328 125.227 8.86328C125.461 8.86328 125.672 8.89844 125.859 8.96875C126.047 9.01563 126.199 9.16797 126.316 9.42578C126.457 9.66016 126.551 10.0234 126.598 10.5156C126.645 11.0078 126.645 11.6758 126.598 12.5195C126.551 13.5508 126.363 14.6758 126.035 15.8945C125.73 17.1133 125.32 18.3789 124.805 19.6914C124.289 20.9805 123.691 22.2812 123.012 23.5938C122.355 24.8828 121.641 26.1133 120.867 27.2852ZM118.793 27.7422C118.887 27.2969 118.969 26.8516 119.039 26.4062C119.133 25.9609 119.238 25.5039 119.355 25.0352C119.309 25.0586 119.262 25.082 119.215 25.1055C119.191 25.1289 119.156 25.1523 119.109 25.1758C118.852 25.293 118.676 25.293 118.582 25.1758C118.488 25.0352 118.441 24.8242 118.441 24.543C118.441 24.4023 118.43 24.1562 118.406 23.8047C118.383 23.4297 118.312 23.0547 118.195 22.6797C118.102 22.2812 117.949 21.9414 117.738 21.6602C117.527 21.3555 117.234 21.2031 116.859 21.2031C116.32 21.2031 115.77 21.4844 115.207 22.0469C114.645 22.5859 114.117 23.2539 113.625 24.0508C113.133 24.8242 112.723 25.6562 112.395 26.5469C112.066 27.4375 111.879 28.2344 111.832 28.9375C111.785 30.0625 111.926 30.8711 112.254 31.3633C112.582 31.8555 113.027 32.1016 113.59 32.1016C114.012 32.1016 114.469 31.9375 114.961 31.6094C115.477 31.2812 115.969 30.8828 116.438 30.4141C116.93 29.9453 117.375 29.4648 117.773 28.9727C118.195 28.4805 118.535 28.0703 118.793 27.7422ZM126.562 33.4375C127.594 29.1016 128.414 25.6211 129.023 22.9961C129.656 20.3711 130.137 18.3672 130.465 16.9844C130.84 15.3438 131.098 14.207 131.238 13.5742C131.309 13.1289 131.367 12.6953 131.414 12.2734C131.461 11.8984 131.484 11.5117 131.484 11.1133C131.484 10.7148 131.449 10.3516 131.379 10.0234C131.566 9.90625 131.766 9.8125 131.977 9.74219C132.211 9.67188 132.434 9.61328 132.645 9.56641C132.902 9.49609 133.16 9.4375 133.418 9.39062C133.676 9.34375 133.91 9.32031 134.121 9.32031C134.309 9.32031 134.484 9.34375 134.648 9.39062C134.812 9.41406 134.918 9.48437 134.965 9.60156C135.105 9.71875 135.164 9.95312 135.141 10.3047C135.141 10.6562 135.117 11.0195 135.07 11.3945C134.977 11.8398 134.871 12.3203 134.754 12.8359C134.473 13.8437 134.086 15.2969 133.594 17.1953C133.172 18.8125 132.598 21.0156 131.871 23.8047C131.168 26.5938 130.277 30.1094 129.199 34.3516C129.082 34.4688 128.941 34.5508 128.777 34.5977C128.613 34.6445 128.461 34.668 128.32 34.668C128.156 34.668 127.98 34.6562 127.793 34.6328C127.629 34.5859 127.465 34.5156 127.301 34.4219C127.16 34.3281 127.02 34.1992 126.879 34.0352C126.738 33.8945 126.633 33.6953 126.562 33.4375ZM153 27.0039C152.672 27.4727 152.25 28.0586 151.734 28.7617C151.219 29.4414 150.68 30.1328 150.117 30.8359C149.578 31.5156 149.039 32.1484 148.5 32.7344C147.984 33.2969 147.551 33.6953 147.199 33.9297C146.965 34.0703 146.695 34.1875 146.391 34.2812C146.086 34.375 145.77 34.4336 145.441 34.457C145.137 34.4805 144.844 34.457 144.562 34.3867C144.281 34.3398 144.035 34.2461 143.824 34.1055C143.613 33.9414 143.438 33.707 143.297 33.4023C143.18 33.1445 143.062 32.8047 142.945 32.3828C142.852 31.9609 142.816 31.4336 142.84 30.8008C142.277 31.7383 141.656 32.4648 140.977 32.9805C140.297 33.4727 139.652 33.8359 139.043 34.0703C138.34 34.3281 137.637 34.4805 136.934 34.5273C136.605 34.5273 136.254 34.4102 135.879 34.1758C135.504 33.9648 135.188 33.625 134.93 33.1562C134.672 32.6641 134.508 32.043 134.438 31.293C134.367 30.5195 134.461 29.6055 134.719 28.5508C135.047 27.1211 135.562 25.8203 136.266 24.6484C136.992 23.4766 137.777 22.4805 138.621 21.6602C139.465 20.8164 140.297 20.1836 141.117 19.7617C141.938 19.3398 142.617 19.1523 143.156 19.1992C143.789 19.3164 144.305 19.5039 144.703 19.7617C145.031 19.9961 145.242 20.3477 145.336 20.8164C145.453 21.2617 145.266 21.8594 144.773 22.6094C145.102 22.5391 145.371 22.4922 145.582 22.4688C145.816 22.4453 145.992 22.4336 146.109 22.4336C146.25 22.4336 146.344 22.4453 146.391 22.4688C146.414 22.5156 146.426 22.6211 146.426 22.7852C146.426 22.9258 146.391 23.1953 146.32 23.5938C146.25 23.9922 146.145 24.5312 146.004 25.2109C145.863 25.8906 145.676 26.7695 145.441 27.8477C145.395 28.0586 145.348 28.2578 145.301 28.4453C145.277 28.6094 145.242 28.7852 145.195 28.9727C145.172 29.1367 145.137 29.3359 145.09 29.5703C145.043 29.8047 144.984 30.0977 144.914 30.4492C144.891 30.6602 144.879 30.8945 144.879 31.1523C144.902 31.3867 144.949 31.6094 145.02 31.8203C145.09 32.0312 145.195 32.207 145.336 32.3477C145.5 32.4648 145.723 32.5234 146.004 32.5234C146.238 32.5234 146.543 32.3828 146.918 32.1016C147.293 31.7969 147.691 31.4219 148.113 30.9766C148.535 30.5078 148.969 30.0039 149.414 29.4648C149.883 28.9023 150.316 28.3633 150.715 27.8477C151.113 27.332 151.465 26.875 151.77 26.4766C152.098 26.0781 152.332 25.7852 152.473 25.5977C152.66 25.3867 152.848 25.2695 153.035 25.2461C153.223 25.1992 153.363 25.2461 153.457 25.3867C153.551 25.5273 153.562 25.7383 153.492 26.0195C153.445 26.3008 153.281 26.6289 153 27.0039ZM142.699 28.5508C142.816 28.082 142.957 27.5312 143.121 26.8984C143.285 26.2656 143.426 25.6562 143.543 25.0703C143.66 24.4844 143.742 24.0039 143.789 23.6289C143.859 23.2305 143.848 23.043 143.754 23.0664C143.637 23.0898 143.508 23.125 143.367 23.1719C143.25 23.2188 143.098 23.2539 142.91 23.2773C142.723 23.3008 142.535 23.3359 142.348 23.3828C142.535 23.0078 142.641 22.7031 142.664 22.4688C142.711 22.2109 142.723 22.0117 142.699 21.8711C142.676 21.707 142.629 21.5781 142.559 21.4844C142.301 21.2734 141.844 21.4492 141.188 22.0117C140.555 22.5508 139.816 23.5586 138.973 25.0352C138.621 25.6445 138.34 26.3008 138.129 27.0039C137.918 27.6836 137.766 28.3281 137.672 28.9375C137.602 29.5469 137.59 30.0859 137.637 30.5547C137.684 31 137.777 31.293 137.918 31.4336C138.176 31.6914 138.469 31.8203 138.797 31.8203C139.125 31.7969 139.453 31.7031 139.781 31.5391C140.133 31.3516 140.473 31.1172 140.801 30.8359C141.152 30.5547 141.457 30.2617 141.715 29.957C141.996 29.6523 142.219 29.3711 142.383 29.1133C142.57 28.8555 142.676 28.668 142.699 28.5508ZM170.016 39.0273C169.898 39.5898 169.746 40.293 169.559 41.1367C169.395 41.9805 169.195 42.8711 168.961 43.8086C168.75 44.7461 168.492 45.6719 168.188 46.5859C167.906 47.5234 167.59 48.3555 167.238 49.082C166.887 49.832 166.5 50.4414 166.078 50.9102C165.656 51.3789 165.188 51.6133 164.672 51.6133C163.898 51.6133 163.23 51.3789 162.668 50.9102C162.129 50.4648 161.672 49.8906 161.297 49.1875C160.922 48.5078 160.652 47.7695 160.488 46.9727C160.301 46.1758 160.207 45.4375 160.207 44.7578C160.207 43.8203 160.289 43.0352 160.453 42.4023C160.617 41.793 160.898 41.207 161.297 40.6445C161.719 40.082 162.281 39.4844 162.984 38.8516C163.688 38.2188 164.59 37.4336 165.691 36.4961C166.23 36.0273 166.746 35.582 167.238 35.1602C167.73 34.7383 168.199 34.3516 168.645 34C168.762 33.5312 168.867 33.0977 168.961 32.6992C169.078 32.2773 169.172 31.9023 169.242 31.5742C168.633 32.3945 167.895 33.0859 167.027 33.6484C166.184 34.2109 165.211 34.4922 164.109 34.4922C163.102 34.4922 162.281 34.0469 161.648 33.1562C161.039 32.2422 160.734 30.9062 160.734 29.1484C160.734 28.2812 160.898 27.2852 161.227 26.1602C161.555 25.0352 162.023 23.9805 162.633 22.9961C163.242 22.0117 163.992 21.1797 164.883 20.5C165.773 19.8203 166.77 19.4805 167.871 19.4805C168.387 19.4805 168.832 19.6094 169.207 19.8672C169.582 20.125 169.898 20.4531 170.156 20.8516C170.414 21.2266 170.613 21.6367 170.754 22.082C170.895 22.5039 171 22.9023 171.07 23.2773C171.117 23.1367 171.152 22.9961 171.176 22.8555C171.199 22.6914 171.234 22.5508 171.281 22.4336C171.516 21.6367 171.773 21.0977 172.055 20.8164C172.359 20.5117 172.805 20.3594 173.391 20.3594C173.719 20.3594 173.988 20.418 174.199 20.5352C174.434 20.6523 174.551 20.7578 174.551 20.8516C174.434 21.1094 174.34 21.3086 174.27 21.4492C174.199 21.5898 174.129 21.7422 174.059 21.9062C173.988 22.0469 173.918 22.2344 173.848 22.4688C173.777 22.7031 173.684 23.043 173.566 23.4883C173.52 23.6523 173.426 24.0391 173.285 24.6484C173.168 25.2344 173.004 25.9375 172.793 26.7578C172.605 27.5781 172.395 28.4805 172.16 29.4648C171.949 30.4492 171.738 31.4102 171.527 32.3477C172.184 31.9727 172.863 31.5156 173.566 30.9766C174.27 30.4375 174.938 29.8867 175.57 29.3242C176.203 28.7617 176.766 28.2344 177.258 27.7422C177.75 27.2266 178.113 26.8047 178.348 26.4766C178.535 26.1953 178.746 25.9961 178.98 25.8789C179.215 25.7617 179.414 25.7266 179.578 25.7734C179.766 25.7969 179.871 25.9023 179.895 26.0898C179.941 26.2539 179.871 26.4883 179.684 26.793C179.145 27.6602 178.488 28.5039 177.715 29.3242C176.941 30.1211 176.145 30.8711 175.324 31.5742C174.527 32.2539 173.742 32.8633 172.969 33.4023C172.219 33.918 171.574 34.3398 171.035 34.668C170.801 35.7227 170.602 36.5781 170.438 37.2344C170.273 37.8906 170.133 38.4883 170.016 39.0273ZM165.586 32.1016C166.078 32.1016 166.535 31.9727 166.957 31.7148C167.402 31.457 167.801 31.1641 168.152 30.8359C168.504 30.4844 168.797 30.1328 169.031 29.7812C169.266 29.4297 169.441 29.1484 169.559 28.9375C169.652 28.7266 169.758 28.4453 169.875 28.0938C170.016 27.7422 170.121 27.4023 170.191 27.0742C170.262 26.7461 170.285 26.4531 170.262 26.1953C170.262 25.9375 170.18 25.7969 170.016 25.7734C169.875 25.75 169.758 25.6562 169.664 25.4922C169.594 25.3281 169.535 25.1406 169.488 24.9297C169.441 24.7188 169.406 24.5078 169.383 24.2969C169.383 24.0859 169.371 23.8984 169.348 23.7344C169.23 22.9141 169.031 22.3164 168.75 21.9414C168.469 21.5664 168.152 21.3789 167.801 21.3789C167.215 21.3789 166.652 21.6133 166.113 22.082C165.598 22.5508 165.129 23.1602 164.707 23.9102C164.309 24.6367 163.992 25.4453 163.758 26.3359C163.523 27.2031 163.406 28.0352 163.406 28.832C163.406 29.8164 163.547 30.6133 163.828 31.2227C164.109 31.8086 164.695 32.1016 165.586 32.1016ZM163.969 48.4141C164.438 48.4141 164.812 48.0625 165.094 47.3594C165.398 46.6797 165.715 45.7422 166.043 44.5469C166.113 44.2656 166.207 43.8555 166.324 43.3164C166.465 42.8008 166.617 42.2031 166.781 41.5234C166.969 40.8438 167.156 40.1055 167.344 39.3086C167.531 38.5352 167.73 37.75 167.941 36.9531C167.754 37.1172 167.555 37.2812 167.344 37.4453C167.156 37.6328 166.957 37.8438 166.746 38.0781C166.23 38.5703 165.727 39.0391 165.234 39.4844C164.766 39.9531 164.344 40.4336 163.969 40.9258C163.594 41.4414 163.289 41.9922 163.055 42.5781C162.844 43.1641 162.738 43.8438 162.738 44.6172C162.738 45.3906 162.762 46.0234 162.809 46.5156C162.879 47.0078 162.961 47.3945 163.055 47.6758C163.172 47.957 163.301 48.1445 163.441 48.2383C163.605 48.3555 163.781 48.4141 163.969 48.4141ZM175.957 33.8242C175.793 34.082 175.617 34.2461 175.43 34.3164C175.219 34.4102 175.043 34.4219 174.902 34.3516C174.738 34.3047 174.633 34.1875 174.586 34C174.539 33.8125 174.586 33.5781 174.727 33.2969C174.797 33.1562 174.961 32.8398 175.219 32.3477C175.453 31.8555 175.746 31.2695 176.098 30.5898C176.426 29.8867 176.789 29.1367 177.188 28.3398C177.586 27.5195 177.961 26.7461 178.312 26.0195C178.688 25.293 179.027 24.6484 179.332 24.0859C179.637 23.5 179.859 23.0781 180 22.8203C179.742 22.5859 179.566 22.4219 179.473 22.3281C179.379 22.2109 179.309 21.9766 179.262 21.625C179.215 21.3203 179.285 20.9219 179.473 20.4297C179.66 19.9375 179.906 19.4688 180.211 19.0234C180.516 18.5547 180.855 18.1562 181.23 17.8281C181.605 17.5 181.969 17.3359 182.32 17.3359C182.977 17.3359 183.434 17.5469 183.691 17.9688C183.973 18.3906 184.137 18.8242 184.184 19.2695C184.23 19.5742 184.207 19.9609 184.113 20.4297C184.02 20.8984 183.844 21.3203 183.586 21.6953C183.656 21.7422 183.75 21.8008 183.867 21.8711C183.984 21.918 184.172 21.9414 184.43 21.9414C184.805 21.9414 185.062 21.918 185.203 21.8711C185.367 21.8242 185.613 21.8008 185.941 21.8008C186.34 21.8008 186.668 21.9062 186.926 22.1172C187.184 22.3047 187.395 22.5508 187.559 22.8555C187.723 23.1367 187.84 23.4531 187.91 23.8047C188.004 24.1328 188.062 24.4375 188.086 24.7188C188.156 25.3047 188.004 25.9141 187.629 26.5469C187.254 27.1797 186.797 27.8711 186.258 28.6211C185.93 29.0898 185.602 29.6172 185.273 30.2031C184.945 30.7891 184.805 31.3164 184.852 31.7852C184.898 32.0898 184.98 32.3359 185.098 32.5234C185.215 32.7109 185.543 32.8047 186.082 32.8047C186.48 32.8047 186.914 32.6641 187.383 32.3828C187.875 32.0781 188.367 31.7031 188.859 31.2578C189.375 30.7891 189.879 30.2852 190.371 29.7461C190.863 29.1836 191.32 28.6445 191.742 28.1289C192.164 27.5898 192.516 27.1094 192.797 26.6875C193.102 26.2656 193.324 25.9609 193.465 25.7734C193.582 25.5859 193.734 25.457 193.922 25.3867C194.109 25.3164 194.273 25.3164 194.414 25.3867C194.555 25.457 194.637 25.5977 194.66 25.8086C194.707 26.0195 194.625 26.3008 194.414 26.6523C194.273 26.8867 194.027 27.2617 193.676 27.7773C193.348 28.293 192.938 28.8672 192.445 29.5C191.977 30.1328 191.449 30.7891 190.863 31.4688C190.277 32.125 189.656 32.7344 189 33.2969C188.367 33.8359 187.723 34.2812 187.066 34.6328C186.434 34.9844 185.824 35.1602 185.238 35.1602C184.629 35.1602 184.125 35.043 183.727 34.8086C183.328 34.5742 183 34.293 182.742 33.9648C182.508 33.6133 182.332 33.2383 182.215 32.8398C182.121 32.418 182.086 32.0312 182.109 31.6797C182.133 31.3984 182.203 31.1055 182.32 30.8008C182.461 30.4727 182.613 30.1445 182.777 29.8164C182.965 29.4648 183.152 29.125 183.34 28.7969C183.551 28.4453 183.738 28.1055 183.902 27.7773C184.301 27.0977 184.617 26.5234 184.852 26.0547C185.109 25.5625 185.238 25.1523 185.238 24.8242C185.238 24.6133 185.191 24.4258 185.098 24.2617C185.004 24.0977 184.852 24.0156 184.641 24.0156C184.5 24.0156 184.395 24.0273 184.324 24.0508C184.277 24.0508 184.219 24.0508 184.148 24.0508C184.102 24.0508 184.02 24.0625 183.902 24.0859C183.809 24.0859 183.656 24.0859 183.445 24.0859C183.141 24.0859 182.883 24.0391 182.672 23.9453C182.461 23.8516 182.262 23.7812 182.074 23.7344C181.98 23.8984 181.77 24.25 181.441 24.7891C181.113 25.3281 180.727 25.9609 180.281 26.6875C179.859 27.4141 179.402 28.1758 178.91 28.9727C178.441 29.7695 177.996 30.5195 177.574 31.2227C177.152 31.9023 176.801 32.4883 176.52 32.9805C176.215 33.4492 176.027 33.7305 175.957 33.8242ZM196.277 34.5625C195.387 34.5625 194.66 34.4219 194.098 34.1406C193.535 33.8594 193.09 33.5195 192.762 33.1211C192.457 32.6992 192.234 32.2539 192.094 31.7852C191.977 31.293 191.918 30.8477 191.918 30.4492C191.918 29.7461 191.977 29.0078 192.094 28.2344C192.211 27.4375 192.352 26.7109 192.516 26.0547C192.68 25.375 192.82 24.8008 192.938 24.332C193.078 23.8633 193.172 23.5703 193.219 23.4531C193.43 22.7734 193.699 22.1875 194.027 21.6953C194.379 21.1797 194.859 20.8281 195.469 20.6406C195.703 20.5938 195.949 20.5469 196.207 20.5C196.418 20.4766 196.629 20.4648 196.84 20.4648C197.074 20.4648 197.285 20.5 197.473 20.5703C196.84 22.1875 196.336 23.5352 195.961 24.6133C195.609 25.6914 195.34 26.5703 195.152 27.25C194.941 28.0234 194.812 28.6445 194.766 29.1133C194.648 30.168 194.742 30.9648 195.047 31.5039C195.352 32.043 195.973 32.3125 196.91 32.3125C197.52 32.3125 198.105 32.0898 198.668 31.6445C199.23 31.1758 199.746 30.5781 200.215 29.8516C200.145 29.4766 200.109 29.0898 200.109 28.6914C200.109 27.9414 200.168 27.2148 200.285 26.5117C200.426 25.7852 200.578 25.1172 200.742 24.5078C200.93 23.875 201.117 23.3125 201.305 22.8203C201.516 22.3281 201.691 21.9414 201.832 21.6602C202.09 21.0977 202.324 20.7578 202.535 20.6406C202.746 20.5 203.086 20.418 203.555 20.3945C203.742 20.3711 203.895 20.3711 204.012 20.3945C204.152 20.3945 204.27 20.4062 204.363 20.4297C204.645 20.5 204.785 20.6406 204.785 20.8516C204.785 21.2266 204.762 21.7891 204.715 22.5391C204.668 23.2891 204.527 24.0625 204.293 24.8594C204.129 25.5156 203.965 26.0781 203.801 26.5469C203.66 26.9922 203.52 27.3789 203.379 27.707C203.238 28.0117 203.098 28.2695 202.957 28.4805C202.816 28.668 202.688 28.8438 202.57 29.0078C202.617 29.7109 202.676 30.2734 202.746 30.6953C202.816 31.1172 202.898 31.4453 202.992 31.6797C203.109 31.8906 203.238 32.043 203.379 32.1367C203.543 32.207 203.719 32.2422 203.906 32.2422C204.234 32.2422 204.621 32.0898 205.066 31.7852C205.512 31.457 205.969 31.0586 206.438 30.5898C206.93 30.0977 207.41 29.5703 207.879 29.0078C208.371 28.4219 208.816 27.8711 209.215 27.3555C209.613 26.8398 209.953 26.3945 210.234 26.0195C210.516 25.6211 210.691 25.375 210.762 25.2812C210.926 25.0703 211.078 24.9414 211.219 24.8945C211.383 24.8477 211.512 24.8711 211.605 24.9648C211.699 25.0352 211.746 25.1641 211.746 25.3516C211.77 25.5156 211.723 25.7031 211.605 25.9141C211.137 26.8047 210.551 27.7539 209.848 28.7617C209.168 29.7461 208.43 30.6602 207.633 31.5039C206.859 32.3477 206.074 33.0508 205.277 33.6133C204.48 34.1758 203.73 34.457 203.027 34.457C202.395 34.457 201.891 34.2461 201.516 33.8242C201.164 33.3789 200.859 32.7461 200.602 31.9258C200.062 32.7695 199.43 33.4258 198.703 33.8945C197.977 34.3398 197.168 34.5625 196.277 34.5625ZM216.844 13.8555C216.492 15.2617 216.094 16.6094 215.648 17.8984C215.227 19.1641 214.781 20.3594 214.312 21.4844C213.867 22.5859 213.41 23.5938 212.941 24.5078C212.496 25.4219 212.098 26.2188 211.746 26.8984C211.512 28.5859 211.512 29.9453 211.746 30.9766C211.98 32.0078 212.438 32.5234 213.117 32.5234C213.68 32.5234 214.23 32.2656 214.77 31.75C215.309 31.2344 215.789 30.6016 216.211 29.8516C216.633 29.1016 216.984 28.3047 217.266 27.4609C217.57 26.5938 217.758 25.8203 217.828 25.1406C217.383 25.0234 217.008 24.8242 216.703 24.543C216.398 24.2383 216.246 23.8398 216.246 23.3477C216.246 23.0195 216.34 22.7148 216.527 22.4336C216.715 22.1289 216.938 21.8711 217.195 21.6602C217.453 21.4492 217.734 21.2852 218.039 21.168C218.344 21.0508 218.625 20.9922 218.883 20.9922C219.281 20.9922 219.621 21.25 219.902 21.7656C220.184 22.2578 220.371 22.8906 220.465 23.6641C221.402 23.6406 222.387 23.5 223.418 23.2422C224.449 22.9844 225.422 22.6562 226.336 22.2578C226.594 22.1406 226.805 22.1055 226.969 22.1523C227.133 22.1992 227.238 22.293 227.285 22.4336C227.355 22.5742 227.355 22.7383 227.285 22.9258C227.215 23.0898 227.074 23.2188 226.863 23.3125C226.324 23.6172 225.762 23.8984 225.176 24.1562C224.613 24.3906 224.051 24.5898 223.488 24.7539C222.926 24.918 222.387 25.0469 221.871 25.1406C221.355 25.2344 220.887 25.2812 220.465 25.2812C220.371 26.2188 220.078 27.2383 219.586 28.3398C219.094 29.418 218.496 30.4258 217.793 31.3633C217.09 32.2773 216.305 33.0391 215.438 33.6484C214.594 34.2578 213.762 34.5625 212.941 34.5625C212.684 34.5625 212.344 34.5273 211.922 34.457C211.5 34.3867 211.09 34.1406 210.691 33.7188C210.293 33.2969 209.953 32.6289 209.672 31.7148C209.391 30.7773 209.273 29.4531 209.32 27.7422C209.344 26.5938 209.473 25.375 209.707 24.0859C209.941 22.7969 210.223 21.5078 210.551 20.2188C210.879 18.9297 211.242 17.6875 211.641 16.4922C212.062 15.2734 212.461 14.1836 212.836 13.2227C213.211 12.2383 213.551 11.418 213.855 10.7617C214.184 10.1055 214.43 9.68359 214.594 9.49609C214.805 9.23828 215.051 9.05078 215.332 8.93359C215.613 8.79297 215.883 8.69922 216.141 8.65234C216.422 8.58203 216.68 8.55859 216.914 8.58203C217.148 8.60547 217.312 8.64062 217.406 8.6875C217.547 8.78125 217.582 9.29688 217.512 10.2344C217.465 11.1719 217.242 12.3789 216.844 13.8555ZM241.77 27.0039C241.441 27.4727 241.02 28.0586 240.504 28.7617C239.988 29.4414 239.449 30.1328 238.887 30.8359C238.348 31.5156 237.809 32.1484 237.27 32.7344C236.754 33.2969 236.32 33.6953 235.969 33.9297C235.734 34.0703 235.465 34.1875 235.16 34.2812C234.855 34.375 234.539 34.4336 234.211 34.457C233.906 34.4805 233.613 34.457 233.332 34.3867C233.051 34.3398 232.805 34.2461 232.594 34.1055C232.383 33.9414 232.207 33.707 232.066 33.4023C231.949 33.1445 231.832 32.8047 231.715 32.3828C231.621 31.9609 231.586 31.4336 231.609 30.8008C231.047 31.7383 230.426 32.4648 229.746 32.9805C229.066 33.4727 228.422 33.8359 227.812 34.0703C227.109 34.3281 226.406 34.4805 225.703 34.5273C225.375 34.5273 225.023 34.4102 224.648 34.1758C224.273 33.9648 223.957 33.625 223.699 33.1562C223.441 32.6641 223.277 32.043 223.207 31.293C223.137 30.5195 223.23 29.6055 223.488 28.5508C223.816 27.1211 224.332 25.8203 225.035 24.6484C225.762 23.4766 226.547 22.4805 227.391 21.6602C228.234 20.8164 229.066 20.1836 229.887 19.7617C230.707 19.3398 231.387 19.1523 231.926 19.1992C232.559 19.3164 233.074 19.5039 233.473 19.7617C233.801 19.9961 234.012 20.3477 234.105 20.8164C234.223 21.2617 234.035 21.8594 233.543 22.6094C233.871 22.5391 234.141 22.4922 234.352 22.4688C234.586 22.4453 234.762 22.4336 234.879 22.4336C235.02 22.4336 235.113 22.4453 235.16 22.4688C235.184 22.5156 235.195 22.6211 235.195 22.7852C235.195 22.9258 235.16 23.1953 235.09 23.5938C235.02 23.9922 234.914 24.5312 234.773 25.2109C234.633 25.8906 234.445 26.7695 234.211 27.8477C234.164 28.0586 234.117 28.2578 234.07 28.4453C234.047 28.6094 234.012 28.7852 233.965 28.9727C233.941 29.1367 233.906 29.3359 233.859 29.5703C233.812 29.8047 233.754 30.0977 233.684 30.4492C233.66 30.6602 233.648 30.8945 233.648 31.1523C233.672 31.3867 233.719 31.6094 233.789 31.8203C233.859 32.0312 233.965 32.207 234.105 32.3477C234.27 32.4648 234.492 32.5234 234.773 32.5234C235.008 32.5234 235.312 32.3828 235.688 32.1016C236.062 31.7969 236.461 31.4219 236.883 30.9766C237.305 30.5078 237.738 30.0039 238.184 29.4648C238.652 28.9023 239.086 28.3633 239.484 27.8477C239.883 27.332 240.234 26.875 240.539 26.4766C240.867 26.0781 241.102 25.7852 241.242 25.5977C241.43 25.3867 241.617 25.2695 241.805 25.2461C241.992 25.1992 242.133 25.2461 242.227 25.3867C242.32 25.5273 242.332 25.7383 242.262 26.0195C242.215 26.3008 242.051 26.6289 241.77 27.0039ZM231.469 28.5508C231.586 28.082 231.727 27.5312 231.891 26.8984C232.055 26.2656 232.195 25.6562 232.312 25.0703C232.43 24.4844 232.512 24.0039 232.559 23.6289C232.629 23.2305 232.617 23.043 232.523 23.0664C232.406 23.0898 232.277 23.125 232.137 23.1719C232.02 23.2188 231.867 23.2539 231.68 23.2773C231.492 23.3008 231.305 23.3359 231.117 23.3828C231.305 23.0078 231.41 22.7031 231.434 22.4688C231.48 22.2109 231.492 22.0117 231.469 21.8711C231.445 21.707 231.398 21.5781 231.328 21.4844C231.07 21.2734 230.613 21.4492 229.957 22.0117C229.324 22.5508 228.586 23.5586 227.742 25.0352C227.391 25.6445 227.109 26.3008 226.898 27.0039C226.688 27.6836 226.535 28.3281 226.441 28.9375C226.371 29.5469 226.359 30.0859 226.406 30.5547C226.453 31 226.547 31.293 226.688 31.4336C226.945 31.6914 227.238 31.8203 227.566 31.8203C227.895 31.7969 228.223 31.7031 228.551 31.5391C228.902 31.3516 229.242 31.1172 229.57 30.8359C229.922 30.5547 230.227 30.2617 230.484 29.957C230.766 29.6523 230.988 29.3711 231.152 29.1133C231.34 28.8555 231.445 28.668 231.469 28.5508ZM244.371 32.8047C244.512 32.8984 244.688 32.9453 244.898 32.9453C245.133 32.9453 245.355 32.8984 245.566 32.8047C245.801 32.7109 246.012 32.582 246.199 32.418C246.41 32.2539 246.562 32.043 246.656 31.7852C246.75 31.5273 246.75 31.1641 246.656 30.6953C246.562 30.2031 246.41 29.6875 246.199 29.1484C246.012 28.5859 245.801 28.0234 245.566 27.4609C245.332 26.8984 245.133 26.3828 244.969 25.9141C244.828 25.5625 244.711 25.2344 244.617 24.9297C244.523 24.6719 244.43 24.4258 244.336 24.1914C244.266 23.9336 244.207 23.7578 244.16 23.6641C244.043 23.8516 243.832 24.1562 243.527 24.5781C243.246 25 242.93 25.4453 242.578 25.9141C242.25 26.3594 241.934 26.7812 241.629 27.1797C241.324 27.5547 241.113 27.8125 240.996 27.9531C240.809 28.1641 240.621 28.293 240.434 28.3398C240.27 28.3633 240.129 28.3281 240.012 28.2344C239.895 28.1172 239.824 27.9648 239.801 27.7773C239.801 27.5664 239.895 27.3203 240.082 27.0391C240.223 26.8516 240.434 26.5586 240.715 26.1602C240.996 25.7383 241.277 25.3164 241.559 24.8945C241.84 24.4492 242.098 24.0625 242.332 23.7344C242.566 23.3828 242.695 23.1719 242.719 23.1016C242.766 22.9141 242.695 22.668 242.508 22.3633C242.344 22.0586 242.32 21.707 242.438 21.3086C242.531 20.9805 242.742 20.6055 243.07 20.1836C243.398 19.7383 243.785 19.3398 244.23 18.9883C244.676 18.6367 245.133 18.3789 245.602 18.2148C246.07 18.0273 246.492 18.0273 246.867 18.2148C247.172 18.4023 247.418 18.6133 247.605 18.8477C247.793 19.0586 247.863 19.2812 247.816 19.5156C247.77 19.6328 247.699 19.7852 247.605 19.9727C247.512 20.1602 247.371 20.3945 247.184 20.6758C246.996 20.9336 246.727 21.2734 246.375 21.6953C246.445 22.2344 246.539 22.7266 246.656 23.1719C246.797 23.6172 246.926 24.0039 247.043 24.332C247.184 24.7305 247.336 25.0938 247.5 25.4219C247.711 25.8438 247.934 26.2773 248.168 26.7227C248.402 27.168 248.613 27.6133 248.801 28.0586C248.988 28.4805 249.141 28.8789 249.258 29.2539C249.375 29.6289 249.41 29.9453 249.363 30.2031C249.293 30.6016 249.082 31.082 248.73 31.6445C248.402 32.207 247.98 32.7578 247.465 33.2969C246.973 33.8125 246.398 34.2578 245.742 34.6328C245.109 35.0078 244.441 35.1953 243.738 35.1953C243.246 35.1953 242.766 35.043 242.297 34.7383C241.852 34.4336 241.465 34.082 241.137 33.6836C240.832 33.2617 240.598 32.8516 240.434 32.4531C240.293 32.0547 240.281 31.75 240.398 31.5391C240.539 31.2578 240.668 31.0352 240.785 30.8711C240.902 30.707 241.078 30.5195 241.312 30.3086C241.406 30.2383 241.523 30.1562 241.664 30.0625C241.781 29.9922 241.945 29.9219 242.156 29.8516C242.367 29.7812 242.613 29.6992 242.895 29.6055C243.129 30.332 243.34 30.9062 243.527 31.3281C243.715 31.7266 243.867 32.043 243.984 32.2773C244.125 32.5352 244.254 32.7109 244.371 32.8047ZM270.105 27.0039C269.777 27.4727 269.355 28.0586 268.84 28.7617C268.324 29.4414 267.785 30.1328 267.223 30.8359C266.684 31.5156 266.145 32.1484 265.605 32.7344C265.09 33.2969 264.656 33.6953 264.305 33.9297C264.07 34.0703 263.801 34.1875 263.496 34.2812C263.191 34.375 262.875 34.4336 262.547 34.457C262.242 34.4805 261.949 34.457 261.668 34.3867C261.387 34.3398 261.141 34.2461 260.93 34.1055C260.719 33.9414 260.543 33.707 260.402 33.4023C260.285 33.1445 260.168 32.8047 260.051 32.3828C259.957 31.9609 259.922 31.4336 259.945 30.8008C259.383 31.7383 258.762 32.4648 258.082 32.9805C257.402 33.4727 256.758 33.8359 256.148 34.0703C255.445 34.3281 254.742 34.4805 254.039 34.5273C253.711 34.5273 253.359 34.4102 252.984 34.1758C252.609 33.9648 252.293 33.625 252.035 33.1562C251.777 32.6641 251.613 32.043 251.543 31.293C251.473 30.5195 251.566 29.6055 251.824 28.5508C252.152 27.1211 252.668 25.8203 253.371 24.6484C254.098 23.4766 254.883 22.4805 255.727 21.6602C256.57 20.8164 257.402 20.1836 258.223 19.7617C259.043 19.3398 259.723 19.1523 260.262 19.1992C260.895 19.3164 261.41 19.5039 261.809 19.7617C262.137 19.9961 262.348 20.3477 262.441 20.8164C262.559 21.2617 262.371 21.8594 261.879 22.6094C262.207 22.5391 262.477 22.4922 262.688 22.4688C262.922 22.4453 263.098 22.4336 263.215 22.4336C263.355 22.4336 263.449 22.4453 263.496 22.4688C263.52 22.5156 263.531 22.6211 263.531 22.7852C263.531 22.9258 263.496 23.1953 263.426 23.5938C263.355 23.9922 263.25 24.5312 263.109 25.2109C262.969 25.8906 262.781 26.7695 262.547 27.8477C262.5 28.0586 262.453 28.2578 262.406 28.4453C262.383 28.6094 262.348 28.7852 262.301 28.9727C262.277 29.1367 262.242 29.3359 262.195 29.5703C262.148 29.8047 262.09 30.0977 262.02 30.4492C261.996 30.6602 261.984 30.8945 261.984 31.1523C262.008 31.3867 262.055 31.6094 262.125 31.8203C262.195 32.0312 262.301 32.207 262.441 32.3477C262.605 32.4648 262.828 32.5234 263.109 32.5234C263.344 32.5234 263.648 32.3828 264.023 32.1016C264.398 31.7969 264.797 31.4219 265.219 30.9766C265.641 30.5078 266.074 30.0039 266.52 29.4648C266.988 28.9023 267.422 28.3633 267.82 27.8477C268.219 27.332 268.57 26.875 268.875 26.4766C269.203 26.0781 269.438 25.7852 269.578 25.5977C269.766 25.3867 269.953 25.2695 270.141 25.2461C270.328 25.1992 270.469 25.2461 270.562 25.3867C270.656 25.5273 270.668 25.7383 270.598 26.0195C270.551 26.3008 270.387 26.6289 270.105 27.0039ZM259.805 28.5508C259.922 28.082 260.062 27.5312 260.227 26.8984C260.391 26.2656 260.531 25.6562 260.648 25.0703C260.766 24.4844 260.848 24.0039 260.895 23.6289C260.965 23.2305 260.953 23.043 260.859 23.0664C260.742 23.0898 260.613 23.125 260.473 23.1719C260.355 23.2188 260.203 23.2539 260.016 23.2773C259.828 23.3008 259.641 23.3359 259.453 23.3828C259.641 23.0078 259.746 22.7031 259.77 22.4688C259.816 22.2109 259.828 22.0117 259.805 21.8711C259.781 21.707 259.734 21.5781 259.664 21.4844C259.406 21.2734 258.949 21.4492 258.293 22.0117C257.66 22.5508 256.922 23.5586 256.078 25.0352C255.727 25.6445 255.445 26.3008 255.234 27.0039C255.023 27.6836 254.871 28.3281 254.777 28.9375C254.707 29.5469 254.695 30.0859 254.742 30.5547C254.789 31 254.883 31.293 255.023 31.4336C255.281 31.6914 255.574 31.8203 255.902 31.8203C256.23 31.7969 256.559 31.7031 256.887 31.5391C257.238 31.3516 257.578 31.1172 257.906 30.8359C258.258 30.5547 258.562 30.2617 258.82 29.957C259.102 29.6523 259.324 29.3711 259.488 29.1133C259.676 28.8555 259.781 28.668 259.805 28.5508Z" fill="#94C11F"/>
</svg>
